# xmcd CD database file
#
# Track frame offsets:
#	150
#	274763
#	289040
#	304410
#	316953
#	320836
#	339941
#	356706
#
# Disc length: 4853 seconds
#
# Revision: 0
# Processed by: cddbd v1.4PL0 Copyright (c) Steve Scherf et al.
# Submitted via: CDex 1.50beta10
#
DISCID=7e12f308
DTITLE=AA.VV by Guy - SOUNDS OF THE WOLVES - EXTRACT FROM...
DYEAR=2003
DGENRE=New Age
TTITLE0=Merlins Magic - Reike
TTITLE1=Various Artist - The Perfumed Garden - Harmonia ensemble
TTITLE2=Various Artist - Leicht Gemacht - Roedelius
TTITLE3=Various Artist - Like Organza - Brian Eno-Jah Wobble
TTITLE4=Various Artist - Interlude I - Harold Budd/Daniel Lentz/Jessica Karraker
TTITLE5=Various Artist - The Valley Of Pamir - Alesini, Andreoni, Harold Budd
TTITLE6=Various Artist - Accordeon Music - Harmonia ensemble
TTITLE7=Various Artist - Il Libro Dell'incessante Accordo Con Il Cielo - Pier Luigi Andreon
EXTD=YEAR: 2003
EXTT0=
EXTT1=
EXTT2=
EXTT3=
EXTT4=
EXTT5=
EXTT6=
EXTT7=
PLAYORDER=
